<svg xmlns="http://www.w3.org/2000/svg" width="1600" height="900" viewBox="0 0 1600 900" role="img" aria-labelledby="title desc">
  <title>UI · Upload Result</title>
  <desc>Suggested capture: successful upload with indexed status, ready-to-ask state, and returned doc_id.</desc>
  <defs>
    <linearGradient id="bg" x1="0" y1="0" x2="1" y2="1">
      <stop offset="0%" stop-color="#0f172a"/>
      <stop offset="100%" stop-color="#1e293b"/>
    </linearGradient>
    <linearGradient id="card" x1="0" y1="0" x2="1" y2="1">
      <stop offset="0%" stop-color="#111827"/>
      <stop offset="100%" stop-color="#0b1220"/>
    </linearGradient>
  </defs>
  <rect width="1600" height="900" fill="url(#bg)"/>
  <rect x="70" y="70" rx="28" ry="28" width="1460" height="760" fill="url(#card)" stroke="#334155" stroke-width="2"/>
  <rect x="120" y="135" width="240" height="18" rx="9" fill="#22c55e" opacity="0.85"/>
  <rect x="380" y="135" width="160" height="18" rx="9" fill="#38bdf8" opacity="0.75"/>
  <rect x="560" y="135" width="130" height="18" rx="9" fill="#a78bfa" opacity="0.75"/>
  <rect x="120" y="190" width="320" height="520" rx="22" fill="#0f172a" stroke="#334155"/>
  <rect x="470" y="190" width="1010" height="520" rx="22" fill="#0f172a" stroke="#334155"/>
  <rect x="150" y="235" width="180" height="18" rx="9" fill="#94a3b8" opacity="0.5"/>
  <rect x="150" y="275" width="240" height="14" rx="7" fill="#475569"/>
  <rect x="150" y="305" width="220" height="14" rx="7" fill="#475569"/>
  <rect x="150" y="335" width="200" height="14" rx="7" fill="#475569"/>
  <rect x="150" y="390" width="260" height="120" rx="18" fill="#111827" stroke="#334155"/>
  <rect x="510" y="235" width="360" height="20" rx="10" fill="#e2e8f0" opacity="0.9"/>
  <rect x="510" y="275" width="820" height="16" rx="8" fill="#475569"/>
  <rect x="510" y="308" width="760" height="16" rx="8" fill="#475569"/>
  <rect x="510" y="341" width="700" height="16" rx="8" fill="#475569"/>
  <rect x="510" y="390" width="920" height="130" rx="22" fill="#111827" stroke="#334155"/>
  <rect x="510" y="550" width="920" height="120" rx="22" fill="#111827" stroke="#334155"/>
  <text x="120" y="775" fill="#e5e7eb" font-size="42" font-family="Arial, Helvetica, sans-serif" font-weight="700">UI · Upload Result</text>
  <text x="120" y="820" fill="#94a3b8" font-size="28" font-family="Arial, Helvetica, sans-serif">Suggested capture: successful upload with indexed status, ready-to-ask state, and returned doc_id.</text>
  <text x="1200" y="820" fill="#38bdf8" font-size="24" font-family="Arial, Helvetica, sans-serif">Replace this SVG with a real PNG or GIF using the same filename.</text>
</svg>
